<svg width="38" height="38" viewBox="0 0 38 38" fill="none" xmlns="http://www.w3.org/2000/svg">
<path d="M10.4754 33.25C9.74603 33.25 9.1375 33.0062 8.64983 32.5185C8.16216 32.0308 7.9178 31.4223 7.91675 30.6929V7.30708C7.91675 6.57875 8.16111 5.97075 8.64983 5.48308C9.13855 4.99542 9.74708 4.75106 10.4754 4.75H27.5263C28.2547 4.75 28.8632 4.99436 29.3519 5.48308C29.8406 5.97181 30.0845 6.58033 30.0834 7.30867V30.6929C30.0834 31.4213 29.8396 32.0298 29.3519 32.5185C28.8642 33.0072 28.2552 33.2511 27.5247 33.25H10.4754ZM19.0001 16.017L22.1667 14.1281L25.3334 16.017V6.33333H19.0001V16.017Z" fill="black"/>
</svg>
